:SAMPLES-PER-SECOND 30
:FULLY-SPECIFIED
:DEGREES
451
root  -36.4676 39.399 -27.449 -18.6825 -83.4553 35.8628
RightUpLeg  -45.0375 -25.2145 6.75047
RightLeg  18.6471 2.20001 2.97142
RightFoot  9.61006 1.75742 -9.1219
RightToes  0.00048216 0.542163 -0.142577
Spine  60.232 -4.68685 9.00196
Spine1  10.39 0.585054 -1.72041
HEad  -13.0589 13.4613 -21.1973
LeftShoulder1  11.0851 -22.0605 -37.1519
LeftArm  -15.5794 -30.3167 -29.7742
LeftForeArm  18.9304 -0.781566 -5.26463
LeftHand  -0.25398 0.0180481 5.50724
RightShoulder  5.27277 14.6441 22.7828
RightArm  -17.9532 40.2044 16.3329
RightForeArm  -5.93581 1.52683 8.06003
RightHand  -2.1679 5.80378 -22.599
LeftUpLeg  -43.5601 6.82184 -1.6548
LeftLeg  38.2956 -6.40418 -4.97809
LeftFoot  -5.76887 0.603062 -11.5354
LeftToes  1.06243e-005 4.65856e-005 -8.18503e-006
452
root  -35.965 39.404 -27.0395 -19.486 -82.8512 34.6743
RightUpLeg  -42.261 -24.814 3.63667
RightLeg  17.385 0.43046 3.33954
RightFoot  10.9342 1.72528 -8.35806
RightToes  0.00048216 0.542163 -0.142577
Spine  59.021 -4.79279 8.67762
Spine1  9.9789 0.171967 -1.6338
HEad  -9.88088 17.1487 -22.4344
LeftShoulder1  10.7925 -20.3577 -38.9685
LeftArm  -15.3531 -21.1756 -29.2742
LeftForeArm  21.761 -1.7852 -4.89098
LeftHand  -0.25398 0.0180481 5.50724
RightShoulder  5.85089 14.7552 25.943
RightArm  -12.8969 32.9704 18.7413
RightForeArm  -7.94391 3.93407 9.12465
RightHand  -1.7921 4.55257 -21.0672
LeftUpLeg  -40.9844 6.29343 -0.14483
LeftLeg  42.2383 -1.57954 -1.15408
LeftFoot  -7.77075 0.284894 -7.79546
LeftToes  1.06243e-005 4.65856e-005 -8.18503e-006
453
root  -35.4378 39.3409 -26.5717 -19.594 -82.4605 32.9037
RightUpLeg  -39.8657 -23.9692 0.763454
RightLeg  16.4911 -1.37216 3.59719
RightFoot  11.8959 1.65273 -7.62123
RightToes  0.00048216 0.542163 -0.142577
Spine  56.771 -4.62732 8.92594
Spine1  11.0726 0.312744 -1.61371
HEad  -7.52495 19.6835 -23.0551
LeftShoulder1  10.994 -19.7371 -40.9472
LeftArm  -15.0405 -14.1346 -26.9767
LeftForeArm  22.3907 -1.9411 -4.76566
LeftHand  -0.25398 0.0180481 5.50724
RightShoulder  6.09463 14.3103 28.184
RightArm  -8.59147 25.7152 20.1943
RightForeArm  -9.70414 6.21756 9.92366
RightHand  -1.64214 3.9494 -20.5407
LeftUpLeg  -37.885 5.98208 1.87524
LeftLeg  45.1774 0.775577 1.21985
LeftFoot  -8.78121 0.20029 -6.72691
LeftToes  1.06243e-005 4.65856e-005 -8.18503e-006
454
root  -34.8662 39.2109 -26.0459 -17.6754 -82.2691 29.1231
RightUpLeg  -37.8136 -22.9158 -1.61582
RightLeg  15.8134 -3.29018 3.69281
RightFoot  12.9888 1.57676 -6.88639
RightToes  0.00048216 0.542163 -0.142577
Spine  54.41 -4.54149 9.51836
Spine1  12.2088 0.62967 -1.84838
HEad  -4.84703 22.1264 -23.6222
LeftShoulder1  11.2404 -19.3266 -42.7619
LeftArm  -14.3969 -8.09691 -23.8084
LeftForeArm  21.1505 -2.28524 -4.82534
LeftHand  -0.25398 0.0180481 5.50724
RightShoulder  6.2738 13.9141 30.0331
RightArm  -3.33733 18.5242 21.266
RightForeArm  -10.7272 8.38464 10.4509
RightHand  -1.62183 3.7888 -20.6288
LeftUpLeg  -34.2221 5.61876 4.40062
LeftLeg  46.9216 0.657635 1.17589
LeftFoot  -10.2685 0.13213 -7.50544
LeftToes  1.06243e-005 4.65856e-005 -8.18503e-006
455
root  -34.2433 39.0237 -25.4714 -15.3299 -82.0213 24.8853
RightUpLeg  -36.1957 -22.5755 -3.26022
RightLeg  15.359 -4.46863 3.53722
RightFoot  14.4548 1.48642 -6.0449
RightToes  0.00048216 0.542163 -0.142577
Spine  52.7396 -4.7439 9.87919
Spine1  12.1461 0.69161 -2.46713
HEad  -1.47545 25.4244 -24.3906
LeftShoulder1  10.9576 -18.546 -43.1858
LeftArm  -14.4932 -1.85975 -21.5189
LeftForeArm  19.5058 -3.5325 -4.52099
LeftHand  -0.25398 0.0180481 5.50724
RightShoulder  6.52255 13.7108 31.9238
RightArm  3.79617 11.4363 22.2191
RightForeArm  -11.9738 10.6426 10.634
RightHand  -1.69033 3.90392 -21.2129
LeftUpLeg  -30.2922 5.10976 6.66656
LeftLeg  47.5028 0.953404 1.54251
LeftFoot  -11.7824 0.0453941 -6.86665
LeftToes  1.06243e-005 4.65856e-005 -8.18503e-006
456
root  -33.5634 38.7888 -24.8496 -13.7699 -81.4352 21.3874
RightUpLeg  -34.8159 -22.9905 -4.69766
RightLeg  15.1884 -4.74252 3.24737
RightFoot  15.6649 1.34216 -5.12669
RightToes  0.00048216 0.542163 -0.142577
Spine  51.7367 -5.27039 10.0262
Spine1  10.9247 0.42939 -3.4615
HEad  1.75071 29.2658 -24.038
LeftShoulder1  10.3015 -17.6082 -42.3738
LeftArm  -15.1956 4.34717 -19.9261
LeftForeArm  17.9599 -5.48679 -3.99097
LeftHand  -0.25398 0.0180481 5.50724
RightShoulder  6.83088 13.5022 34.2008
RightArm  12.3834 4.1405 22.7971
RightForeArm  -14.9158 13.4307 10.283
RightHand  -1.8466 4.27602 -22.2492
LeftUpLeg  -26.3952 4.09858 8.26849
LeftLeg  47.0615 2.28744 3.05023
LeftFoot  -12.2172 0.0356301 -4.86833
LeftToes  1.06243e-005 4.65856e-005 -8.18503e-006
457
root  -32.8045 38.5126 -24.1539 -12.4888 -80.5052 18.2262
RightUpLeg  -33.3156 -22.9449 -6.84747
RightLeg  14.8769 -5.57335 3.05482
RightFoot  16.7187 1.17469 -4.22942
RightToes  0.00048216 0.542163 -0.142577
Spine  50.0668 -5.20739 9.94368
Spine1  10.9709 0.0727199 -2.69027
HEad  3.81423 31.9846 -22.7072
LeftShoulder1  10.0612 -16.943 -42.7593
LeftArm  -15.7641 8.2545 -17.6125
LeftForeArm  16.3668 -7.27109 -3.66777
LeftHand  -0.25398 0.0180481 5.50724
RightShoulder  6.65264 12.9248 34.5277
RightArm  19.7859 -3.37399 24.1488
RightForeArm  -19.0168 16.5388 9.09985
RightHand  -2.04548 4.8402 -23.2695
LeftUpLeg  -22.6013 2.56587 9.26072
LeftLeg  45.6262 2.68087 3.35505
LeftFoot  -12.3712 0.0289393 -4.97011
LeftToes  1.06243e-005 4.65856e-005 -8.18503e-006
458
root  -31.9726 38.2185 -23.3737 -11.6434 -79.5529 15.6588
RightUpLeg  -31.3743 -21.7432 -9.85577
RightLeg  13.5111 -7.94773 3.02084
RightFoot  18.9777 0.963904 -3.07829
RightToes  0.00048216 0.542163 -0.142577
Spine  48.212 -5.11909 9.79518
Spine1  11.349 -0.211365 -2.16734
HEad  5.86727 33.9286 -20.4235
LeftShoulder1  9.84722 -16.3631 -43.0923
LeftArm  -16.1543 10.842 -15.1994
LeftForeArm  15.0825 -9.28925 -3.5058
LeftHand  -0.25398 0.0180481 5.50724
RightShoulder  6.50552 12.3029 35.1859
RightArm  25.1988 -11.1513 24.9198
RightForeArm  -22.96 19.6581 7.55507
RightHand  -2.09614 4.9706 -23.542
LeftUpLeg  -18.9607 1.65846 9.50472
LeftLeg  43.3176 1.30389 1.72764
LeftFoot  -14.2855 -0.142445 -8.39676
LeftToes  1.06243e-005 4.65856e-005 -8.18503e-006
459
root  -31.0991 37.9416 -22.5433 -12.2259 -78.8363 14.6712
RightUpLeg  -28.933 -19.9339 -13.1311
RightLeg  10.8342 -10.9237 3.07601
RightFoot  21.977 0.438624 -0.965131
RightToes  0.00048216 0.542163 -0.142577
Spine  46.6092 -4.88205 8.90812
Spine1  11.7827 -0.473447 -2.18994
HEad  8.15662 35.9981 -19.2307
LeftShoulder1  9.37997 -15.6951 -42.4379
LeftArm  -17.0819 12.9917 -13.8892
LeftForeArm  14.1901 -12.0254 -3.2227
LeftHand  -0.25398 0.0180481 5.50724
RightShoulder  6.40001 11.7224 36.0445
RightArm  27.1994 -18.4325 25.6101
RightForeArm  -24.41 21.9466 6.50778
RightHand  -1.78567 3.85174 -22.4546
LeftUpLeg  -16.0699 2.47793 8.67351
LeftLeg  41.067 -0.358847 0.0455692
LeftFoot  -18.1536 -0.564365 -11.4007
LeftToes  1.06243e-005 4.65856e-005 -8.18503e-006
460
root  -30.1725 37.7464 -21.6925 -14.2192 -78.1747 15.3545
RightUpLeg  -26.1625 -18.5055 -16.1854
RightLeg  7.23572 -13.1719 3.17614
RightFoot  22.2828 -0.58445 2.497
RightToes  0.00048216 0.542163 -0.142577
Spine  45.1929 -4.38144 6.98676
Spine1  12.4314 -0.97882 -1.99515
HEad  9.81468 38.6392 -19.6304
LeftShoulder1  8.86311 -15.0237 -41.4948
LeftArm  -18.4828 14.7106 -13.0768
LeftForeArm  13.5289 -15.3729 -3.06207
LeftHand  -0.25398 0.0180481 5.50724
RightShoulder  6.2268 11.2284 36.2739
RightArm  25.7999 -24.4121 27.1874
RightForeArm  -23.0327 22.8862 6.17874
RightHand  -1.21411 1.62735 -20.0709
LeftUpLeg  -14.9848 4.27097 6.68965
LeftLeg  40.1781 -0.776749 -0.318099
LeftFoot  -21.6588 -0.81204 -10.4746
LeftToes  1.06243e-005 4.65856e-005 -8.18503e-006
461
root  -29.1724 37.6706 -20.8473 -15.4719 -77.383 15.4838
RightUpLeg  -22.9938 -18.1666 -18.475
RightLeg  2.79535 -14.7792 3.36381
RightFoot  18.0828 -1.60027 6.61216
RightToes  0.00048216 0.542163 -0.142577
Spine  43.8606 -3.9266 4.8732
Spine1  13.2872 -1.67409 -1.52984
HEad  10.4604 41.2806 -20.0136
LeftShoulder1  8.49928 -14.4802 -40.9543
LeftArm  -19.8819 15.5719 -11.8765
LeftForeArm  13.1975 -18.7723 -3.37371
LeftHand  -0.25398 0.0180481 5.50724
RightShoulder  6.06596 10.8779 36.1909
RightArm  21.9091 -28.7373 29.5571
RightForeArm  -20.0529 22.4267 6.12075
RightHand  -0.756563 -0.359604 -17.4322
LeftUpLeg  -15.6437 5.3934 4.36643
LeftLeg  40.8859 -0.275242 0.13745
LeftFoot  -22.6737 -0.580941 -7.16264
LeftToes  1.06243e-005 4.65856e-005 -8.18503e-006
462
root  -28.1463 37.6964 -20.059 -15.1131 -76.918 14.1193
RightUpLeg  -19.6267 -18.226 -19.8956
RightLeg  -2.00108 -17.396 4.2343
RightFoot  12.7365 -1.9559 9.51558
RightToes  0.00048216 0.542163 -0.142577
Spine  42.6724 -3.57168 3.33207
Spine1  14.14 -1.95824 -1.66468
HEad  10.842 43.2533 -19.4473
LeftShoulder1  8.19471 -14.0725 -40.354
LeftArm  -21.2573 15.7174 -11.0555
LeftForeArm  13.0996 -21.8879 -3.9776
LeftHand  -0.25398 0.0180481 5.50724
RightShoulder  6.0011 10.6184 36.4995
RightArm  15.6613 -31.3883 32.1085
RightForeArm  -15.918 20.7942 6.32092
RightHand  -0.577826 -1.18931 -15.8362
LeftUpLeg  -16.7419 6.10458 2.70796
LeftLeg  41.9149 -0.277549 0.129554
LeftFoot  -21.5103 -0.286525 -4.67017
LeftToes  1.06243e-005 4.65856e-005 -8.18503e-006
